<?xml version="1.0" encoding="UTF-8" standalone="no"?>
<svg
   xmlns:dc="http://purl.org/dc/elements/1.1/"
   xmlns:cc="http://creativecommons.org/ns#"
   xmlns:rdf="http://www.w3.org/1999/02/22-rdf-syntax-ns#"
   xmlns:svg="http://www.w3.org/2000/svg"
   xmlns="http://www.w3.org/2000/svg"
   xmlns:sodipodi="http://sodipodi.sourceforge.net/DTD/sodipodi-0.dtd"
   xmlns:inkscape="http://www.inkscape.org/namespaces/inkscape"
   version="1.1"
   id="Calque_1"
   x="0px"
   y="0px"
   viewBox="0 0 100 99.8"
   style="enable-background:new 0 0 100 99.8;"
   xml:space="preserve"
   inkscape:version="1.0.1 (3bc2e813f5, 2020-09-07)"
   sodipodi:docname="Communication_icon_(The_Noun_Project)_with_a_W_white.svg"><metadata
     id="metadata21"><rdf:RDF><cc:Work
         rdf:about=""><dc:format>image/svg+xml</dc:format><dc:type
           rdf:resource="http://purl.org/dc/dcmitype/StillImage" /><dc:title>Artboard 19</dc:title></cc:Work></rdf:RDF></metadata><defs
     id="defs19" /><sodipodi:namedview
     pagecolor="#ffffff"
     bordercolor="#666666"
     borderopacity="1"
     objecttolerance="10"
     gridtolerance="10"
     guidetolerance="10"
     inkscape:pageopacity="0"
     inkscape:pageshadow="2"
     inkscape:window-width="1920"
     inkscape:window-height="1016"
     id="namedview17"
     showgrid="false"
     inkscape:zoom="4.729"
     inkscape:cx="47.93"
     inkscape:cy="46.64"
     inkscape:current-layer="Calque_1"
     inkscape:document-rotation="0"
     inkscape:window-x="0"
     inkscape:window-y="27"
     inkscape:window-maximized="1" /><title
     id="title3">Artboard 19</title><path
     d="M96.3,33.9c-3.2-2.7-8-2.3-10.7,0.9c-1.2,1.4-1.8,3.1-1.8,4.9v15c-0.5-0.2-1.1-0.3-1.6-0.4c-2.3-0.2-4.5,0.6-6.1,2.2  L57.5,75.1c-2.6,2.6-4,6.1-4,9.8v11.7c0,1.4,1.1,2.5,2.5,2.5s2.5-1.1,2.5-2.5V84.8c0-2.3,0.9-4.6,2.5-6.2l18.5-18.5c1-1,2.6-1,3.6,0  s1,2.6,0,3.6L72.4,74.5c-0.9,1.1-0.8,2.6,0.3,3.5c0.9,0.8,2.3,0.8,3.3,0l10.7-10.7c1.8-1.8,2.6-4.5,2-7c0-0.2,0-0.3,0-0.5V39.7  c0-1.4,1.2-2.6,2.6-2.6c1.4,0,2.6,1.2,2.6,2.6l0,0v28c0,2.8-1.1,5.5-3.1,7.5L76,90.2c-0.5,0.5-0.7,1.1-0.7,1.8v4.6  c0,1.4,1.1,2.5,2.5,2.5s2.5-1.1,2.5-2.5V93l14.1-14.2c3-2.9,4.6-6.9,4.6-11.1v-28C99,37.5,98,35.4,96.3,33.9z"
     id="path5"
     style="fill:#ffffff" /><path
     d="M19.8,93v3.5c0,1.4,1.1,2.5,2.5,2.5s2.5-1.1,2.5-2.5v-4.6c0-0.7-0.3-1.3-0.8-1.8L9.2,75.3c-2-2-3.2-4.7-3.2-7.5v-28  c0-1.4,1.2-2.6,2.6-2.6s2.6,1.2,2.6,2.6v20c0,0.2,0,0.3,0,0.5c-0.6,2.5,0.2,5.2,2,7L24,78c1,1,2.6,1,3.5,0s1-2.6,0-3.5L16.9,63.8  c-1-1-1-2.6,0-3.6s2.6-1,3.6,0l0,0L39,78.6c1.7,1.6,2.6,3.9,2.6,6.2v11.7c0,1.4,1.1,2.5,2.5,2.5s2.5-1.1,2.5-2.5V84.8  c0-3.7-1.4-7.2-4-9.8L24,56.6c-1.6-1.6-3.9-2.4-6.2-2.2c-0.5,0.1-1.1,0.2-1.6,0.4V39.7c0-4.2-3.4-7.6-7.6-7.6S1,35.5,1,39.7v28  c0,4.2,1.7,8.2,4.6,11.1L19.8,93z"
     id="path7"
     style="fill:#ffffff" /><path
     d="M20.3,30.8c0,13.2,8.7,24.9,21.4,28.6l4,7.2c0.9,1.6,2.6,2.6,4.4,2.6l0,0c1.8,0,3.5-1,4.4-2.6l4-7.2  c15.8-4.6,24.8-21.2,20.2-37C74.1,6.6,57.6-2.4,41.8,2.2C29.1,5.9,20.3,17.6,20.3,30.8L20.3,30.8z M74.9,30.8  c0,11.3-7.7,21.2-18.7,24C55.6,55,55,55.4,54.6,56l-4.6,8.2l-4.5-8.1c-0.3-0.6-0.9-1.1-1.6-1.2C30.7,51.5,22.7,38,26.1,24.7  S42.9,3.4,56.2,6.8C67.2,9.6,74.9,19.5,74.9,30.8L74.9,30.8z"
     id="path9"
     style="fill:#ffffff" /><path
     inkscape:connector-curvature="0"
     d="M 31.64,21.81 31.57,21.88 31.57,22.57 C 31.57,22.76 31.66,22.87 31.85,22.87 32.76,22.96 33.37,23.15 33.7,23.45 34.03,23.74 34.36,24.31 34.65,25.14 L 44.21,45.13 C 44.42,45.71 44.69,46 45.05,46 45.41,46 45.71,45.71 45.95,45.13 L 49.81,37.12 53.65,45.13 C 53.86,45.71 54.15,46 54.51,46 54.86,46 55.15,45.71 55.39,45.13 L 64.98,25.31 C 65.24,24.52 65.67,23.94 66.1,23.54 66.53,23.13 67.22,22.91 68.09,22.87 68.34,22.87 68.43,22.76 68.43,22.57 L 68.43,21.88 68.34,21.81 64.98,21.88 C 64.04,21.88 62.66,21.86 60.92,21.81 L 60.85,21.88 60.85,22.57 C 60.85,22.76 60.95,22.87 61.14,22.87 L 61.71,22.89 C 62.49,22.93 63,23.1 63.26,23.4 63.61,23.69 63.61,24.16 63.35,24.81 L 55.5,40.89 55.36,40.89 51.59,33.43 55.51,25.31 C 55.81,24.52 56.18,23.94 56.62,23.54 57.06,23.13 57.75,22.91 58.66,22.87 58.87,22.87 58.97,22.76 58.97,22.57 L 58.97,21.88 58.89,21.81 55.51,21.88 C 54.56,21.88 53.21,21.86 51.47,21.81 L 51.41,21.88 51.41,22.57 C 51.41,22.76 51.5,22.87 51.69,22.87 L 52.28,22.89 C 53.03,22.93 53.54,23.1 53.83,23.4 54.13,23.69 54.15,24.16 53.9,24.81 L 50.62,31.53 47.1,24.56 C 46.89,24.02 46.89,23.64 47.1,23.44 47.31,23.22 47.86,23.06 48.72,22.94 L 49.35,22.87 C 49.54,22.83 49.62,22.73 49.62,22.57 L 49.62,21.88 49.55,21.81 45.38,21.88 C 44.43,21.88 42.99,21.86 41.08,21.81 L 41.01,21.88 41.01,22.57 C 41.01,22.76 41.1,22.87 41.29,22.87 42.2,22.96 42.82,23.15 43.13,23.45 43.47,23.74 43.8,24.31 44.09,25.14 L 48.87,35.13 46.06,40.89 45.92,40.89 37.65,24.56 C 37.45,24.02 37.45,23.64 37.65,23.44 37.87,23.22 38.4,23.06 39.27,22.94 L 39.9,22.87 C 40.09,22.83 40.18,22.73 40.18,22.57 L 40.18,21.88 40.11,21.81 35.94,21.88 C 34.98,21.88 33.55,21.86 31.64,21.81 Z"
     id="path2834"
     style="font-style:normal;font-variant:normal;font-weight:normal;font-stretch:normal;font-size:121.8019px;font-family:'Linux Libertine C';-inkscape-font-specification:'Linux Libertine C';fill:#ffffff;fill-opacity:1;fill-rule:evenodd;stroke:none;stroke-miterlimit:10" /></svg>
